<svg width="476" height="125" viewBox="0 0 476 125" fill="none" xmlns="http://www.w3.org/2000/svg">
<path d="M62.4999 112.43H40.4999C38.0826 112.406 35.702 111.835 33.5371 110.76C31.3721 109.684 29.479 108.132 27.9999 106.22L2.79991 73.29C0.970568 70.9012 0.0264687 67.9518 0.128588 64.9448C0.230708 61.9377 1.37272 59.0592 3.35991 56.8L29.1799 27.49C30.6684 25.8012 32.4995 24.4488 34.5513 23.5229C36.6032 22.5969 38.8288 22.1187 41.0799 22.12H62.4999V36.45H40.9999C40.7846 36.4494 40.5717 36.4946 40.3751 36.5825C40.1786 36.6704 40.003 36.7991 39.8599 36.96L14.7599 65.45L39.2999 97.5C39.4433 97.6848 39.6266 97.8348 39.8361 97.9387C40.0457 98.0426 40.276 98.0978 40.5099 98.1H62.5099L62.4999 112.43Z" fill="#003365"/>
<path d="M176.41 112.43H148.18V98.1H176.41C176.644 98.0978 176.874 98.0426 177.084 97.9387C177.294 97.8348 177.477 97.6848 177.62 97.5L202.15 65.45L177.06 37C176.916 36.8401 176.741 36.7121 176.544 36.6242C176.348 36.5364 176.135 36.4907 175.92 36.49H148.18V22.12H175.92C178.171 22.1187 180.397 22.5969 182.449 23.5229C184.501 24.4488 186.332 25.8012 187.82 27.49L213.63 56.8C215.619 59.058 216.763 61.9359 216.867 64.943C216.971 67.9501 216.028 70.9001 214.2 73.29L189 106.21C187.513 108.136 185.606 109.697 183.424 110.775C181.242 111.853 178.844 112.419 176.41 112.43Z" fill="#003365"/>
<path d="M99.6001 112.92C96.7835 112.927 93.9935 112.376 91.3914 111.298C88.7892 110.22 86.4266 108.637 84.4401 106.64L60.1001 82.3C56.0795 78.2792 53.8208 72.8261 53.8208 67.14C53.8208 61.454 56.0795 56.0008 60.1001 51.98L84.4401 27.63C88.4608 23.6095 93.914 21.3507 99.6001 21.3507C105.286 21.3507 110.739 23.6095 114.76 27.63L139.11 52C143.131 56.0208 145.389 61.4739 145.389 67.16C145.389 72.8461 143.131 78.2993 139.11 82.32L114.76 106.66C112.773 108.654 110.409 110.234 107.807 111.308C105.205 112.383 102.415 112.931 99.6001 112.92ZM99.6001 35.69C98.6703 35.6873 97.7493 35.8698 96.8908 36.2269C96.0323 36.584 95.2536 37.1086 94.6001 37.77L70.2501 62.11C68.9182 63.4432 68.1701 65.2506 68.1701 67.135C68.1701 69.0195 68.9182 70.8268 70.2501 72.16L94.6001 96.51C95.9332 97.8418 97.7406 98.5899 99.6251 98.5899C101.51 98.5899 103.317 97.8418 104.65 96.51L129 72.16C130.332 70.8268 131.08 69.0195 131.08 67.135C131.08 65.2506 130.332 63.4432 129 62.11L104.66 37.77C103.999 37.1013 103.211 36.5726 102.342 36.2152C101.472 35.8579 100.54 35.6792 99.6001 35.69Z" fill="#ff5538"/>
<path d="M169.85 33.55H155.52V105.26H169.85V33.55Z" fill="#003365"/>
<path d="M107.607 49.4846L81.4404 74.9749L91.4398 85.2395L117.606 59.7492L107.607 49.4846Z" fill="#003365"/>
<path d="M255.534 98.9574C250.618 98.9574 246.455 97.8564 243.047 95.6545C239.638 93.4525 237.044 90.4211 235.264 86.5602C233.515 82.6692 232.61 78.205 232.55 73.1677C232.61 68.0399 233.545 63.5456 235.355 59.6847C237.165 55.7936 239.774 52.7773 243.182 50.6357C246.591 48.4639 250.723 47.3781 255.579 47.3781C260.526 47.3781 264.825 48.5846 268.474 50.9977C272.154 53.4107 274.673 56.7136 276.03 60.9063L269.515 62.9876C268.369 60.0617 266.544 57.7995 264.04 56.2008C261.567 54.572 258.732 53.7576 255.534 53.7576C251.945 53.7576 248.974 54.5871 246.621 56.2461C244.268 57.8749 242.519 60.1522 241.373 63.0781C240.226 66.0039 239.638 69.3671 239.608 73.1677C239.668 79.0194 241.026 83.7249 243.68 87.2841C246.334 90.8133 250.286 92.5778 255.534 92.5778C258.852 92.5778 261.672 91.8237 263.995 90.3156C266.348 88.7772 268.127 86.5451 269.334 83.6193L276.03 85.6101C274.22 89.9536 271.566 93.2716 268.067 95.564C264.568 97.8262 260.391 98.9574 255.534 98.9574ZM285.37 97.6V48.7354H291.342V60.4991L290.166 58.9608C290.709 57.5129 291.418 56.1857 292.292 54.9792C293.167 53.7425 294.117 52.732 295.143 51.9478C296.41 50.8318 297.888 49.9872 299.577 49.4141C301.266 48.8108 302.97 48.4639 304.689 48.3734C306.409 48.2528 307.977 48.3734 309.395 48.7354V54.9792C307.615 54.5268 305.67 54.4212 303.558 54.6625C301.447 54.9038 299.501 55.7484 297.722 57.1962C296.093 58.4631 294.871 59.9863 294.057 61.766C293.242 63.5154 292.699 65.3856 292.428 67.3763C292.157 69.337 292.021 71.2825 292.021 73.213V97.6H285.37ZM330.103 98.9574C326.423 98.9574 323.331 98.2938 320.828 96.9666C318.354 95.6394 316.499 93.8748 315.263 91.6729C314.026 89.471 313.408 87.073 313.408 84.479C313.408 81.8246 313.935 79.5623 314.991 77.6922C316.077 75.7919 317.54 74.2385 319.38 73.032C321.25 71.8254 323.407 70.9055 325.85 70.272C328.323 69.6688 331.053 69.1409 334.039 68.6884C337.056 68.2058 339.997 67.7986 342.862 67.4668C345.758 67.1049 348.291 66.758 350.463 66.4262L348.11 67.874C348.201 63.0479 347.266 59.4736 345.305 57.151C343.345 54.8284 339.936 53.6671 335.08 53.6671C331.732 53.6671 328.896 54.4212 326.574 55.9294C324.281 57.4375 322.668 59.8204 321.733 63.0781L315.263 61.1778C316.379 56.8041 318.626 53.4107 322.004 50.9977C325.382 48.5846 329.771 47.3781 335.17 47.3781C339.635 47.3781 343.42 48.2226 346.527 49.9118C349.664 51.5708 351.881 53.9838 353.178 57.151C353.781 58.5687 354.173 60.1522 354.354 61.9017C354.535 63.6512 354.626 65.4308 354.626 67.2406V97.6H348.699V85.3386L350.418 86.0625C348.759 90.2552 346.18 93.4525 342.681 95.6545C339.182 97.8564 334.989 98.9574 330.103 98.9574ZM330.872 93.2112C333.979 93.2112 336.694 92.6532 339.016 91.5372C341.339 90.4211 343.209 88.8979 344.627 86.9674C346.044 85.0068 346.964 82.8049 347.387 80.3617C347.748 78.7932 347.945 77.0739 347.975 75.2037C348.005 73.3034 348.02 71.8858 348.02 70.9507L350.554 72.2628C348.291 72.5644 345.833 72.8661 343.179 73.1677C340.555 73.4693 337.96 73.8162 335.397 74.2083C332.863 74.6005 330.57 75.068 328.519 75.6109C327.132 76.0031 325.79 76.5611 324.493 77.285C323.196 77.9788 322.125 78.9138 321.28 80.0902C320.466 81.2666 320.059 82.7295 320.059 84.479C320.059 85.8966 320.405 87.2691 321.099 88.5963C321.823 89.9234 322.969 91.0244 324.538 91.8991C326.136 92.7739 328.248 93.2112 330.872 93.2112ZM371.245 97.6V45.1158C371.245 43.8489 371.306 42.5972 371.426 41.3605C371.577 40.1238 371.864 38.9474 372.286 37.8314C372.708 36.6852 373.372 35.6294 374.277 34.6642C375.272 33.5783 376.358 32.7941 377.535 32.3115C378.711 31.7987 379.933 31.4669 381.199 31.3161C382.496 31.1653 383.763 31.0899 385 31.0899H391.244V36.7002H385.452C382.919 36.7002 381.018 37.3186 379.752 38.5553C378.515 39.792 377.897 41.7375 377.897 44.3919V97.6H371.245ZM362.785 54.4363V48.7354H391.244V54.4363H362.785ZM425.086 97.6C422.341 98.1731 419.627 98.3993 416.942 98.2787C414.288 98.158 411.905 97.5849 409.794 96.5594C407.712 95.5338 406.129 93.9352 405.043 91.7634C404.168 89.9536 403.685 88.1287 403.595 86.2888C403.535 84.4186 403.504 82.2921 403.504 79.9092V35.1619H410.11V79.6377C410.11 81.6888 410.125 83.4082 410.155 84.7957C410.216 86.153 410.533 87.3596 411.106 88.4153C412.192 90.4362 413.911 91.6427 416.264 92.0349C418.646 92.427 421.587 92.3365 425.086 91.7634V97.6ZM393.053 54.4363V48.7354H425.086V54.4363H393.053ZM452.947 98.9121C447.216 98.9121 442.496 97.6754 438.786 95.202C435.106 92.7286 432.843 89.29 431.999 84.8862L438.786 83.755C439.51 86.5301 441.153 88.7471 443.717 90.4061C446.311 92.0349 449.509 92.8493 453.309 92.8493C457.019 92.8493 459.945 92.0801 462.087 90.5418C464.228 88.9733 465.299 86.8468 465.299 84.1622C465.299 82.6541 464.952 81.4325 464.259 80.4974C463.595 79.5322 462.223 78.6424 460.141 77.8279C458.06 77.0135 454.953 76.0483 450.821 74.9323C446.387 73.7257 442.918 72.5192 440.414 71.3127C437.911 70.1061 436.131 68.7186 435.076 67.1501C434.02 65.5515 433.492 63.6059 433.492 61.3135C433.492 58.5385 434.276 56.1103 435.845 54.0291C437.413 51.9176 439.585 50.2888 442.36 49.1426C445.135 47.9662 448.363 47.3781 452.042 47.3781C455.722 47.3781 459.01 47.9813 461.906 49.1879C464.832 50.3642 467.184 52.0232 468.964 54.1648C470.744 56.3064 471.799 58.7949 472.131 61.6302L465.344 62.8518C464.892 59.9863 463.459 57.7241 461.046 56.0651C458.663 54.3759 455.632 53.5012 451.952 53.4409C448.483 53.3504 445.663 54.014 443.491 55.4317C441.319 56.8192 440.234 58.6742 440.234 60.9968C440.234 62.2938 440.626 63.4099 441.41 64.3449C442.194 65.2498 443.612 66.1095 445.663 66.9239C447.744 67.7383 450.7 68.6281 454.531 69.5934C459.025 70.7396 462.554 71.9461 465.118 73.213C467.682 74.4798 469.507 75.9729 470.593 77.6922C471.679 79.4115 472.222 81.538 472.222 84.0718C472.222 88.6867 470.502 92.3214 467.064 94.9758C463.655 97.6 458.95 98.9121 452.947 98.9121Z" fill="#003365"/>
</svg>
